<svg width="46" height="46" viewBox="0 0 46 46" fill="none" xmlns="http://www.w3.org/2000/svg">
<path d="M22.9999 26.8333C27.2281 26.8333 30.6666 23.3948 30.6666 19.1667C30.6666 14.9385 27.2281 11.5 22.9999 11.5C18.7718 11.5 15.3333 14.9385 15.3333 19.1667C15.3333 23.3948 18.7718 26.8333 22.9999 26.8333ZM22.9999 15.3333C25.114 15.3333 26.8333 17.0526 26.8333 19.1667C26.8333 21.2807 25.114 23 22.9999 23C20.8858 23 19.1666 21.2807 19.1666 19.1667C19.1666 17.0526 20.8858 15.3333 22.9999 15.3333Z" fill="black"/>
<path d="M21.8883 41.8103C22.2127 42.042 22.6014 42.1665 23 42.1665C23.3986 42.1665 23.7873 42.042 24.1117 41.8103C24.6943 41.3982 38.3889 31.5102 38.3333 19.1668C38.3333 10.7124 31.4544 3.8335 23 3.8335C14.5456 3.8335 7.66667 10.7124 7.66667 19.1572C7.61109 31.5102 21.3057 41.3982 21.8883 41.8103ZM23 7.66683C29.3423 7.66683 34.5 12.8246 34.5 19.1764C34.5403 27.6826 26.0897 35.3205 23 37.8256C19.9123 35.3186 11.4598 27.6787 11.5 19.1668C11.5 12.8246 16.6578 7.66683 23 7.66683Z" fill="white"/>
</svg>
